{"title":"Caroline And The Magic Potion 2015 Movies HDRip XviD New â˜»rDXâ˜»","uid":12423035,"size":741273236,"categoryP":"video","categoryS":"movies","magnet":"?xt=urn:btih:8952cf0123f23774978344b260bae65f70e225d3&amp;dn=Caroline+And+The+Magic+Potion+2015+Movies+HDRip+XviD+New+%E2%98%BBrDX%E2%98%BB&amp;tr=udp%3A%2F%2Ftracker.openbittorrent.com%3A80&amp;tr=udp%3A%2F%2Fopen.demonii.com%3A1337&amp;tr=udp%3A%2F%2Ftracker.coppersurfer.tk%3A6969&amp;tr=udp%3A%2F%2Fexodus.desync.com%3A6969","seeders":0,"leechers":1,"uploader":"basicssom","files":2,"time":1442329442,"description":"----------------------------------------------------------------\nCaroline And The Magic Potion 2015 English Movies HDRip XviD AAC New Source with Sample ~ â˜»rDXâ˜»\n\nSCREEN SHOTS &amp; POSTER:\n &lt;a href=&quot;\nhttp://doctorhosts.com/2015/8/catmp/11.html&quot; rel=&quot;nofollow&quot; target=&quot;_NEW&quot;&gt;\nhttp://doctorhosts.com/2015/8/catmp/11.html&lt;/a&gt; &lt;a href=&quot;\nhttp://doctorhosts.com/2015/8/catmp/1.html&quot; rel=&quot;nofollow&quot; target=&quot;_NEW&quot;&gt;\nhttp://doctorhosts.com/2015/8/catmp/1.html&lt;/a&gt; &lt;a href=&quot;\nhttp://doctorhosts.com/2015/8/catmp/2.html&quot; rel=&quot;nofollow&quot; target=&quot;_NEW&quot;&gt;\nhttp://doctorhosts.com/2015/8/catmp/2.html&lt;/a&gt; &lt;a href=&quot;\nhttp://doctorhosts.com/2015/8/catmp/3.html&quot; rel=&quot;nofollow&quot; target=&quot;_NEW&quot;&gt;\nhttp://doctorhosts.com/2015/8/catmp/3.html&lt;/a&gt; &lt;a href=&quot;\nhttp://doctorhosts.com/2015/8/catmp/4.html&quot; rel=&quot;nofollow&quot; target=&quot;_NEW&quot;&gt;\nhttp://doctorhosts.com/2015/8/catmp/4.html&lt;/a&gt; &lt;a href=&quot;\nhttp://doctorhosts.com/2015/8/catmp/5.html&quot; rel=&quot;nofollow&quot; target=&quot;_NEW&quot;&gt;\nhttp://doctorhosts.com/2015/8/catmp/5.html&lt;/a&gt; &lt;a href=&quot;\nhttp://doctorhosts.com/2015/8/catmp/6.html&quot; rel=&quot;nofollow&quot; target=&quot;_NEW&quot;&gt;\nhttp://doctorhosts.com/2015/8/catmp/6.html&lt;/a&gt; &lt;a href=&quot;\nhttp://doctorhosts.com/2015/8/catmp/7.html&quot; rel=&quot;nofollow&quot; target=&quot;_NEW&quot;&gt;\nhttp://doctorhosts.com/2015/8/catmp/7.html&lt;/a&gt; &lt;a href=&quot;\nhttp://doctorhosts.com/2015/8/catmp/8.html&quot; rel=&quot;nofollow&quot; target=&quot;_NEW&quot;&gt;\nhttp://doctorhosts.com/2015/8/catmp/8.html&lt;/a&gt; &lt;a href=&quot;\nhttp://doctorhosts.com/2015/8/catmp/9.html&quot; rel=&quot;nofollow&quot; target=&quot;_NEW&quot;&gt;\nhttp://doctorhosts.com/2015/8/catmp/9.html&lt;/a&gt; &lt;a href=&quot;\nhttp://doctorhosts.com/2015/8/catmp/10.html&quot; rel=&quot;nofollow&quot; target=&quot;_NEW&quot;&gt;\nhttp://doctorhosts.com/2015/8/catmp/10.html&lt;/a&gt;\n\nFormat                                   : Matroska\nFormat version                           : Version 4 / Version 2\nFile size                                : 701 MiB\nDuration                                 : 1h 18mn\nOverall bit rate                         : 1 250 Kbps\nMovie name                               : Caroline And The Magic Potion 2015 English Movies HDRip XviD AAC New Source ~ rDX ~\n\nVideo\nID                                       : 1\nFormat                                   : MPEG-4 Visual\nFormat profile                           : Advanced Simple@L5\nFormat settings, BVOP                    : Yes\nFormat settings, QPel                    : No\nFormat settings, GMC                     : No warppoints\nFormat settings, Matrix                  : Default (MPEG)\nCodec ID                                 : V_MS/VFW/FOURCC / XVID\nCodec ID/Hint                            : XviD\nDuration                                 : 1h 18mn\nBit rate                                 : 841 Kbps\nWidth                                    : 704 pixels\nHeight                                   : 376 pixels\nDisplay aspect ratio                     : 1.85:1\nFrame rate mode                          : Constant\nFrame rate                               : 23.976 fps\nColor space                              : YUV\nChroma subsampling                       : 4:2:0\nBit depth                                : 8 bits\nScan type                                : Progressive\nCompression mode                         : Lossy\nBits/(Pixel*Frame)                       : 0.132\nStream size                              : 471 MiB (67%)\nTitle                                    : ~ rDX ~\nWriting library                          : XviD 64\nDefault                                  : Yes\nForced                                   : No\n\nAudio\nID                                       : 2\nFormat                                   : AC-3\nFormat/Info                              : Audio Coding 3\nMode extension                           : CM (complete main)\nFormat settings, Endianness              : Big\nCodec ID                                 : A_AC3\nDuration                                 : 1h 18mn\nBit rate mode                            : Constant\nBit rate                                 : 384 Kbps\nChannel(s)                               : 6 channels\nChannel positions                        : Front: L C R, Side: L R, LFE\nSampling rate                            : 48.0 KHz\nBit depth                                : 16 bits\nCompression mode                         : Lossy\nStream size                              : 215 MiB (31%)\nTitle                                    : ~ rDX ~\nDefault                                  : Yes\nForced                                   : No","torrent":{"xt":"urn:btih:8952cf0123f23774978344b260bae65f70e225d3","amp;dn":"Caroline+And+The+Magic+Potion+2015+Movies+HDRip+XviD+New+%E2%98%BBrDX%E2%98%BB","amp;tr":["udp%3A%2F%2Ftracker.openbittorrent.com%3A80","udp%3A%2F%2Fopen.demonii.com%3A1337","udp%3A%2F%2Ftracker.coppersurfer.tk%3A6969","udp%3A%2F%2Fexodus.desync.com%3A6969"],"infoHash":"8952cf0123f23774978344b260bae65f70e225d3","infoHashBuffer":{"type":"Buffer","data":[137,82,207,1,35,242,55,116,151,131,68,178,96,186,230,95,112,226,37,211]},"announce":[],"urlList":[]}}